<svg xmlns="http://www.w3.org/2000/svg" viewBox="0 0 24 24" width="24" height="24">
  <path fill="#2271b1" d="M20.92 2.38A15.72 15.72 0 0 0 17.5 2a8.26 8.26 0 0 0-6 2.06Q9.89 5.67 8.31 7.27c-1.21-.13-4.08-.2-6 1.69a1 1 0 0 0 0 1.42l11.84 11.89a1 1 0 0 0 1.42 0c1.89-1.95 1.82-4.83 1.7-6.05 1.6-1.6 3.2-3.17 4.64-4.8a8.16 8.16 0 0 0 2-6 15.08 15.08 0 0 0-.38-3.37 1 1 0 0 0-.71-.71zM16 10a2 2 0 1 1 2-2 2 2 0 0 1-2 2z"/>
  <path fill="#2271b1" d="M10.86 13.07l-7.76 7.76a1 1 0 0 0 0 1.42 1 1 0 0 0 1.43 0l7.75-7.75z"/>
  <path fill="#2271b1" d="M13.07 10.86l-2.83 2.83 1.41 1.41 2.83-2.82z"/>
</svg>